<svg id="Capa_1" enable-background="new 0 0 512 512" height="512" viewBox="0 0 512 512" width="512" xmlns="http://www.w3.org/2000/svg"><g><g><g><path fill="#f15927" d="m252.989 73.577h-188.47c-4.142 0-7.5 3.358-7.5 7.5s3.358 7.5 7.5 7.5h188.47c4.142 0 7.5-3.358 7.5-7.5s-3.358-7.5-7.5-7.5z"/><path fill="#f15927" d="m260.489 132.604c0-4.142-3.358-7.5-7.5-7.5h-188.47c-4.142 0-7.5 3.358-7.5 7.5s3.358 7.5 7.5 7.5h188.47c4.142 0 7.5-3.358 7.5-7.5z"/><path fill="#f15927" d="m64.519 176.631c-4.142 0-7.5 3.358-7.5 7.5s3.358 7.5 7.5 7.5h94.235c4.142 0 7.5-3.358 7.5-7.5s-3.358-7.5-7.5-7.5z"/><path fill="#f15927" d="m141.75 497h-109.313c-8.973 0-16.273-7.3-16.273-16.273v-449.454c0-8.973 7.3-16.273 16.273-16.273 279.227.08 262.256-.173 264.756.187v62.716c0 14.577 11.859 26.436 26.436 26.436h62.716c.111.772.187 1.553.187 2.348v43.48c0 4.142 3.358 7.5 7.5 7.5s7.5-3.358 7.5-7.5v-43.48c0-7.417-2.57-14.437-7.281-20.054-.009-.011-.019-.022-.028-.033-.579-.688-76.321-76.795-79.3-79.299-.007-.006-.013-.012-.02-.017-5.617-4.713-12.638-7.284-20.057-7.284h-262.409c-17.244 0-31.273 14.029-31.273 31.273v449.453c0 17.245 14.029 31.274 31.273 31.274h109.313c4.142 0 7.5-3.358 7.5-7.5s-3.358-7.5-7.5-7.5zm170.443-419.097v-52.297l63.732 63.732h-52.296c-6.305 0-11.436-5.13-11.436-11.435z"/><path fill="#f15927" d="m506.35 279.906c-.082-.156-.171-.309-.265-.461-5.779-9.534-16.255-15.918-28.194-15.918h-26.287c-7.913-57.782-57.59-102.446-117.511-102.446s-109.598 44.663-117.511 102.446h-26.287c-18.005 0-32.946 14.669-32.946 32.946v182.582c0 18.087 14.723 32.945 32.946 32.945h287.595c18.192 0 32.945-14.825 32.945-32.945v-182.582c.001-6.038-1.639-11.696-4.485-16.567zm-10.514 199.149c0 2.687-.61 5.228-1.673 7.519l-118.793-106.01 120.409-85.205c.088 1.419.044 112.208.057 183.696zm-17.945-200.528c4.003 0 7.691 1.334 10.68 3.558l-39.885 28.224c2.65-9.956 4.026-20.268 4.026-30.609 0-.392-.011-.781-.015-1.172h25.194zm-143.798-102.446c57.135 0 103.618 46.483 103.618 103.618 0 16.175-3.624 31.633-10.753 45.984l-63.072 44.632-5.371-4.793c-6.042-5.392-13.418-8.441-20.969-9.153 2.403-1.25 4.047-3.758 4.047-6.654v-8.087c31.756-6.46 40.366-52.711 6.143-64.809-2.019-.714-4.083-1.461-6.143-2.238v-33.372c5.039 1.296 8.035 3.831 8.303 4.066 3.047 2.757 7.752 2.549 10.544-.478 2.808-3.045 2.617-7.79-.428-10.598-.409-.377-7.236-6.528-18.419-8.289v-6.676c0-4.142-3.358-7.5-7.5-7.5s-7.5 3.358-7.5 7.5v7.245c-.996.225-2.004.478-3.034.789-21.942 6.609-27.666 36.395-11.716 48.905 3.749 2.941 8.402 5.635 14.75 8.473v42.559c-5.558-.443-9.142-1.838-15.218-5.812-3.466-2.268-8.115-1.296-10.382 2.17-2.268 3.467-1.296 8.115 2.17 10.382 9.14 5.979 15.414 7.808 23.43 8.292v7.479c0 2.896 1.644 5.404 4.047 6.654-7.551.712-14.927 3.76-20.969 9.153l-5.371 4.793-63.073-44.632c-7.129-14.35-10.752-29.809-10.752-45.984.001-57.136 46.483-103.619 103.618-103.619zm7.5 114.471c.383.137.752.271 1.144.41 18.145 6.414 13.873 29.277-1.144 35.033zm-15-22.624c-2.06-1.14-3.923-2.326-5.493-3.558-5.94-4.658-3.901-18.35 5.493-22.269zm-152.57 218.645c-1.063-2.291-1.673-4.832-1.673-7.519.013-71.488-.031-182.277.056-183.696 12.419 8.788 106.332 75.243 120.41 85.205zm41.467-208.046c-.004.391-.015.78-.015 1.172 0 10.342 1.375 20.654 4.025 30.609l-39.885-28.224c2.988-2.224 6.677-3.558 10.68-3.558h25.195zm-25.194 218.473c-1.63 0-3.202-.238-4.704-.647 8.557-7.636 127.635-113.9 134.067-119.64 8.229-7.344 20.64-7.344 28.869 0l134.067 119.64c-1.502.409-3.074.647-4.703.647z"/></g></g></g></svg>