<?xml version="1.0"?>
<svg xmlns="http://www.w3.org/2000/svg" xmlns:xlink="http://www.w3.org/1999/xlink" xmlns:svgjs="http://svgjs.com/svgjs" version="1.1" width="512" height="512" x="0" y="0" viewBox="0 0 512 512" style="enable-background:new 0 0 512 512" xml:space="preserve" class=""><g><g xmlns="http://www.w3.org/2000/svg"><path d="m487.27 281.717h-.407v-9.258c0-61.666-24.014-119.641-67.618-163.245-35.577-35.576-80.72-58.105-129.629-65.197v-5.297c0-18.536-15.08-33.615-33.616-33.615-18.535 0-33.615 15.08-33.615 33.615v5.293c-23.249 3.372-45.711 10.27-67.085 20.646-3.727 1.809-5.28 6.296-3.472 10.022 1.81 3.727 6.297 5.281 10.022 3.472 29.464-14.303 61.141-21.556 94.15-21.556 57.659 0 111.866 22.454 152.638 63.225 40.77 40.771 63.225 94.979 63.225 152.638v9.258h-431.726v-9.258c0-73.73 37.055-141.619 99.121-181.603 3.482-2.244 4.486-6.885 2.243-10.367-2.244-3.484-6.887-4.487-10.366-2.243-66.373 42.758-105.998 115.361-105.998 194.213v9.258h-.407c-13.636 0-24.73 11.094-24.73 24.73v.602c0 6.503 2.527 12.425 6.646 16.844-3.828 4.064-6.099 9.507-6.099 15.42v85.08c0 12.407 10.093 22.5 22.5 22.5h27.5v37.5c0 12.407 10.093 22.5 22.5 22.5h115.528c12.406 0 22.5-10.093 22.5-22.5v-54.923h66.485c4.143 0 7.5-3.358 7.5-7.5s-3.357-7.5-7.5-7.5h-66.485v-75.157c0-2.616-.455-5.154-1.296-7.534h135.018c.773.269 1.6.423 2.464.423 7.038 0 12.764 5.726 12.764 12.764s-5.726 12.764-12.763 12.764h-68.635c-4.143 0-7.5 3.358-7.5 7.5s3.357 7.5 7.5 7.5h68.636.002.261c.071 0 .139-.009.21-.011 14.697-.112 28.896-5.441 40.033-15.056l30.366-26.256c8.732-7.549 21.986-6.594 29.544 2.128 1.664 1.92 1.457 4.837-.462 6.503l-76.938 66.754c-5.713 4.951-13.023 7.678-20.583 7.678h-42.136c-4.143 0-7.5 3.358-7.5 7.5s3.357 7.5 7.5 7.5h42.136c11.168 0 21.967-4.028 30.41-11.345l76.94-66.757c5.761-4.999 7.877-12.648 6.145-19.589h24.077c13.636 0 24.73-11.094 24.73-24.73v-.602c.002-13.637-11.092-24.731-24.728-24.731zm-231.271-240.12c-6.252 0-12.457.256-18.615.742v-3.618c0-10.265 8.351-18.615 18.615-18.615 10.265 0 18.616 8.351 18.616 18.615v3.623c-6.16-.488-12.368-.747-18.616-.747zm-232.952 390.297c-4.136 0-7.5-3.364-7.5-7.5v-85.08c0-3.312 2.123-6.193 5.282-7.168.435-.134.844-.31 1.235-.512.876.094 1.765.146 2.666.146h27.124c-.843 2.376-1.307 4.914-1.307 7.534v92.58zm169.52-98.932c2.197 1.386 3.509 3.761 3.509 6.352v145.08c0 4.136-3.364 7.5-7.5 7.5h-115.529c-4.135 0-7.5-3.364-7.5-7.5v-145.08c0-3.022 1.799-5.736 4.583-6.914.411-.174.793-.386 1.156-.62h119.851c.42.44.892.842 1.43 1.182zm185.396 13.351c-1.036.894-2.107 1.74-3.209 2.535.179-1.269.271-2.564.271-3.881 0-4.77-1.21-9.262-3.337-13.187h23.085zm119.037-39.264c0 5.365-4.364 9.73-9.73 9.73h-36.356c-11.517-7.193-26.416-7.352-38.149 0h-388.035c-5.365 0-9.73-4.365-9.73-9.73v-.602c0-5.365 4.365-9.73 9.73-9.73h7.907 446.726 7.907c5.365 0 9.73 4.365 9.73 9.73z" fill="#6c757d" data-original="#000000" style="" class=""/></g></g></svg>
